<mxfile host="app.diagrams.net" modified="2023-05-22T15:57:10.669Z" agent="Mozilla/5.0 (X11; Ubuntu; Linux x86_64; rv:109.0) Gecko/20100101 Firefox/113.0" etag="GeFsQABpN0bgg-iL7sm0" version="21.3.2" type="google">
  <diagram name="Page-1" id="dYuD5p2OIfLlrYVjpl7g">
    <mxGraphModel grid="1" page="1" gridSize="10" guides="1" tooltips="1" connect="1" arrows="1" fold="1" pageScale="1" pageWidth="827" pageHeight="1169" math="0" shadow="0">
      <root>
        <mxCell id="0" />
        <mxCell id="1" parent="0" />
        <mxCell id="nevp9mbM4JCHGkue86Kh-1" value="User" style="shape=umlActor;verticalLabelPosition=bottom;verticalAlign=top;html=1;" vertex="1" parent="1">
          <mxGeometry x="190" y="300" width="30" height="60" as="geometry" />
        </mxCell>
        <mxCell id="nevp9mbM4JCHGkue86Kh-2" value="Layout Subsystem" style="shape=umlFrame;whiteSpace=wrap;html=1;pointerEvents=0;width=170;height=30;" vertex="1" parent="1">
          <mxGeometry x="280" y="200" width="480" height="230" as="geometry" />
        </mxCell>
        <mxCell id="nevp9mbM4JCHGkue86Kh-3" style="edgeStyle=orthogonalEdgeStyle;rounded=0;orthogonalLoop=1;jettySize=auto;html=1;entryX=0.5;entryY=0.5;entryDx=0;entryDy=0;entryPerimeter=0;endArrow=none;endFill=0;" edge="1" parent="1" source="nevp9mbM4JCHGkue86Kh-4" target="nevp9mbM4JCHGkue86Kh-1">
          <mxGeometry relative="1" as="geometry">
            <Array as="points">
              <mxPoint x="310" y="280" />
              <mxPoint x="310" y="330" />
            </Array>
          </mxGeometry>
        </mxCell>
        <mxCell id="nevp9mbM4JCHGkue86Kh-4" value="Add Panel" style="ellipse;whiteSpace=wrap;html=1;" vertex="1" parent="1">
          <mxGeometry x="424" y="260" width="96" height="40" as="geometry" />
        </mxCell>
        <mxCell id="nevp9mbM4JCHGkue86Kh-5" style="edgeStyle=orthogonalEdgeStyle;rounded=0;orthogonalLoop=1;jettySize=auto;html=1;endArrow=none;endFill=0;" edge="1" parent="1" source="nevp9mbM4JCHGkue86Kh-6">
          <mxGeometry relative="1" as="geometry">
            <mxPoint x="210" y="330" as="targetPoint" />
          </mxGeometry>
        </mxCell>
        <mxCell id="nevp9mbM4JCHGkue86Kh-6" value="Adjust panel dimensions" style="ellipse;whiteSpace=wrap;html=1;" vertex="1" parent="1">
          <mxGeometry x="424" y="310" width="96" height="40" as="geometry" />
        </mxCell>
        <mxCell id="nevp9mbM4JCHGkue86Kh-7" style="edgeStyle=orthogonalEdgeStyle;rounded=0;orthogonalLoop=1;jettySize=auto;html=1;endArrow=none;endFill=0;entryX=0.5;entryY=0.5;entryDx=0;entryDy=0;entryPerimeter=0;" edge="1" parent="1" source="nevp9mbM4JCHGkue86Kh-8" target="nevp9mbM4JCHGkue86Kh-1">
          <mxGeometry relative="1" as="geometry">
            <mxPoint x="210" y="330" as="targetPoint" />
            <Array as="points">
              <mxPoint x="310" y="380" />
              <mxPoint x="310" y="330" />
            </Array>
          </mxGeometry>
        </mxCell>
        <mxCell id="nevp9mbM4JCHGkue86Kh-8" value="Remove Panel" style="ellipse;whiteSpace=wrap;html=1;" vertex="1" parent="1">
          <mxGeometry x="424" y="360" width="96" height="40" as="geometry" />
        </mxCell>
        <mxCell id="nevp9mbM4JCHGkue86Kh-13" style="edgeStyle=orthogonalEdgeStyle;rounded=0;orthogonalLoop=1;jettySize=auto;html=1;entryX=1;entryY=0.5;entryDx=0;entryDy=0;dashed=1;" edge="1" parent="1" source="nevp9mbM4JCHGkue86Kh-11" target="nevp9mbM4JCHGkue86Kh-6">
          <mxGeometry relative="1" as="geometry">
            <Array as="points">
              <mxPoint x="550" y="290" />
              <mxPoint x="550" y="330" />
            </Array>
          </mxGeometry>
        </mxCell>
        <mxCell id="nevp9mbM4JCHGkue86Kh-11" value="Extend panel" style="ellipse;whiteSpace=wrap;html=1;" vertex="1" parent="1">
          <mxGeometry x="640" y="270" width="96" height="40" as="geometry" />
        </mxCell>
        <mxCell id="nevp9mbM4JCHGkue86Kh-14" style="edgeStyle=orthogonalEdgeStyle;rounded=0;orthogonalLoop=1;jettySize=auto;html=1;dashed=1;" edge="1" parent="1" source="nevp9mbM4JCHGkue86Kh-12" target="nevp9mbM4JCHGkue86Kh-6">
          <mxGeometry relative="1" as="geometry">
            <Array as="points">
              <mxPoint x="550" y="370" />
              <mxPoint x="550" y="330" />
            </Array>
          </mxGeometry>
        </mxCell>
        <mxCell id="nevp9mbM4JCHGkue86Kh-12" value="Shrink Panel" style="ellipse;whiteSpace=wrap;html=1;" vertex="1" parent="1">
          <mxGeometry x="640" y="350" width="96" height="40" as="geometry" />
        </mxCell>
        <mxCell id="nevp9mbM4JCHGkue86Kh-15" value="&amp;lt;&amp;lt;extends&amp;gt;&amp;gt;" style="text;html=1;align=center;verticalAlign=middle;resizable=0;points=[];autosize=1;strokeColor=none;fillColor=none;" vertex="1" parent="1">
          <mxGeometry x="550" y="270" width="90" height="30" as="geometry" />
        </mxCell>
        <mxCell id="nevp9mbM4JCHGkue86Kh-16" value="&amp;lt;&amp;lt;extends&amp;gt;&amp;gt;" style="text;html=1;align=center;verticalAlign=middle;resizable=0;points=[];autosize=1;strokeColor=none;fillColor=none;" vertex="1" parent="1">
          <mxGeometry x="550" y="350" width="90" height="30" as="geometry" />
        </mxCell>
      </root>
    </mxGraphModel>
  </diagram>
</mxfile>
